<?xml version="1.0" encoding="UTF-8"?>
<svg width="300" height="100" viewBox="0 0 300 100" xmlns="http://www.w3.org/2000/svg">
  <!-- Main C shape -->
  <path d="M80 50C80 67.6731 65.6731 82 48 82C30.3269 82 16 67.6731 16 50C16 32.3269 30.3269 18 48 18C58 18 66 22 72 28" 
        fill="none" 
        stroke="#007bff" 
        stroke-width="12"
        stroke-linecap="round"/>
        
  <!-- Lightbulb -->
  <circle cx="48" cy="50" r="14" fill="#FFD700"/>
  <path d="M48 32v-6 M48 74v-6 M30 50h-6 M72 50h-6
           M36 38l-4-4 M60 62l-4-4 M60 38l4-4 M36 62l4-4"
        stroke="#FFD700" 
        stroke-width="4"
        stroke-linecap="round"/>
  
  <!-- Text "00lnerd" -->
  <text x="95" y="65" 
        font-family="system-ui, sans-serif" 
        font-size="48" 
        font-weight="bold" 
        fill="#007bff">00lnerd</text>
        
  <!-- .com -->
  <text x="240" y="65" 
        font-family="system-ui, sans-serif" 
        font-size="32" 
        fill="#007bff">.com</text>
</svg>
