<?xml version="1.0" encoding="UTF-8"?>
<svg width="32" height="32" viewBox="0 0 32 32" xmlns="http://www.w3.org/2000/svg">
  <!-- Main C shape -->
  <path d="M28 16C28 22.6274 22.6274 28 16 28C9.37258 28 4 22.6274 4 16C4 9.37258 9.37258 4 16 4C20 4 23.5 5.5 26 8" 
        fill="none" 
        stroke="#007bff" 
        stroke-width="5"
        stroke-linecap="round"/>
        
  <!-- Lightbulb base -->
  <circle cx="16" cy="16" r="4" fill="#ffd700"/>
  
  <!-- Lightbulb rays -->
  <path d="M16 10v-2 M16 24v-2 M10 16h-2 M24 16h-2
           M12 12l-1.4-1.4 M20 20l-1.4-1.4 M20 12l1.4-1.4 M12 20l1.4-1.4"
        stroke="#ffd700" 
        stroke-width="2"
        stroke-linecap="round"/>
        
  <!-- Filament -->
  <path d="M15 15.5L16 17L17 15.5" 
        fill="none"
        stroke="#007bff" 
        stroke-width="1"
        stroke-linecap="round"/>
</svg>
